<svg width="1440" height="1755" viewBox="0 0 1440 1755" fill="none" xmlns="http://www.w3.org/2000/svg">
<rect width="1440" height="1755" fill="#171717"/>
<path d="M193 933.5C193 974.513 161.009 1008 121.5 1008C82.1381 1008 50 974.513 50 933.5C50 892.333 82.1381 859 121.5 859C161.009 859 193 892.333 193 933.5Z" stroke="#C1F330" stroke-width="3" stroke-miterlimit="10"/>
<path d="M170.444 933.5C170.444 961.61 148.478 984.344 121.5 984.344C94.5214 984.344 72.7029 961.61 72.7029 933.5" stroke="#C1F330" stroke-width="3" stroke-miterlimit="10"/>
<path d="M116.783 918.6C116.783 933.654 114.571 945.942 112.065 945.942C109.412 945.942 107.2 933.654 107.2 918.6C107.2 903.546 109.412 891.258 112.065 891.258C114.571 891.258 116.783 903.546 116.783 918.6Z" fill="#C1F330"/>
<path d="M135.8 918.6C135.8 933.654 133.736 945.942 131.083 945.942C128.429 945.942 126.365 933.654 126.365 918.6C126.365 903.546 128.429 891.258 131.083 891.258C133.736 891.258 135.8 903.546 135.8 918.6Z" fill="#C1F330"/>
<path d="M1279.3 399.193C1278.77 399.28 1278.24 399.323 1277.72 399.323V399.193C1277.72 399.193 1278.38 399.193 1279.3 399.193Z" fill="#C1F330"/>
<path d="M1298.15 419.637C1298.15 419.203 1298.2 418.769 1298.28 418.335C1298.28 418.682 1298.28 419.073 1298.28 419.507L1298.15 419.637Z" fill="#C1F330"/>
<path d="M1319.11 398.932L1318.72 399.323C1318.72 399.323 1308.44 398.281 1308.44 409.48C1308.44 409.48 1299.07 408.569 1298.28 418.335C1297.49 408.438 1288.13 409.48 1288.13 409.48L1288 409.35C1288 401.016 1282.2 399.453 1279.3 399.193C1288.79 398.281 1287.87 389.296 1287.87 389.296L1288 389.166C1299.21 389.166 1298.15 379.009 1298.15 379.009L1298.55 378.748C1298.55 378.748 1297.49 388.775 1308.7 388.775L1308.83 388.906C1308.83 388.906 1307.78 398.932 1319.11 398.932Z" fill="#C1F330"/>
<path fill-rule="evenodd" clip-rule="evenodd" d="M1365.65 398.542C1358.67 398.672 1332.17 401.276 1332.17 433.44L1331.9 433.701C1331.9 433.701 1300.52 430.576 1298.02 463C1295.51 430.185 1264 433.44 1264 433.44L1263.74 433.05C1263.74 405.313 1244.62 400.235 1235 399.453C1266.51 396.198 1263.35 366.117 1263.35 366.117L1263.74 365.727C1293.8 365.727 1297.49 344.11 1297.89 335.516C1298.55 343.85 1303.03 364.555 1332.96 364.555L1333.35 364.945C1333.35 364.945 1329.93 397.5 1365.65 398.542ZM1297.76 332C1297.76 332 1297.89 333.432 1297.89 335.516C1297.76 333.432 1297.76 332 1297.76 332ZM1367.5 398.542C1366.88 398.542 1366.27 398.542 1365.65 398.542C1366.84 398.542 1367.5 398.542 1367.5 398.542ZM1342.19 398.802C1318.32 398.802 1320.56 377.446 1320.56 377.446L1320.3 377.186C1296.57 377.186 1298.68 355.83 1298.68 355.83L1298.02 356.611C1298.02 356.611 1300.26 377.967 1276.4 377.967L1276.13 378.097C1276.13 378.097 1278.11 397.24 1258.2 399.323C1264.27 399.844 1276.4 403.099 1276.4 420.679L1276.53 420.939C1276.53 420.939 1296.57 418.856 1298.15 439.561C1299.87 419.116 1319.64 421.07 1319.64 421.07L1319.91 420.939C1319.91 397.37 1341.53 399.583 1341.53 399.583L1342.19 398.802Z" fill="#C1F330"/>
<path d="M1258.2 399.323C1257.06 399.497 1255.83 399.584 1254.51 399.584L1254.78 399.323C1254.78 399.323 1256.09 399.193 1258.2 399.323Z" fill="#C1F330"/>
<path d="M1279.3 399.193C1278.77 399.28 1278.24 399.323 1277.72 399.323V399.193C1277.72 399.193 1278.38 399.193 1279.3 399.193Z" fill="#C1F330"/>
<path d="M1298.15 439.691C1298.15 440.472 1298.15 441.34 1298.15 442.295L1298.02 442.425C1298.02 441.471 1298.06 440.559 1298.15 439.691Z" fill="#C1F330"/>
<path d="M1298.15 419.637C1298.15 419.203 1298.2 418.769 1298.28 418.335C1298.28 418.682 1298.28 419.073 1298.28 419.507L1298.15 419.637Z" fill="#C1F330"/>
<path d="M1319.11 398.932L1318.72 399.323C1318.72 399.323 1308.44 398.281 1308.44 409.48C1308.44 409.48 1299.07 408.569 1298.28 418.335C1297.49 408.438 1288.13 409.48 1288.13 409.48L1288 409.35C1288 401.016 1282.2 399.453 1279.3 399.193C1288.79 398.281 1287.87 389.296 1287.87 389.296L1288 389.166C1299.21 389.166 1298.15 379.009 1298.15 379.009L1298.55 378.748C1298.55 378.748 1297.49 388.775 1308.7 388.775L1308.83 388.906C1308.83 388.906 1307.78 398.932 1319.11 398.932Z" fill="#C1F330"/>
<path d="M1279.3 399.193C1278.77 399.28 1278.24 399.323 1277.72 399.323V399.193C1277.72 399.193 1278.38 399.193 1279.3 399.193Z" fill="#C1F330"/>
<path d="M1298.15 419.637C1298.15 419.203 1298.2 418.769 1298.28 418.335C1298.28 418.682 1298.28 419.073 1298.28 419.507L1298.15 419.637Z" fill="#C1F330"/>
<path d="M1319.11 398.932L1318.72 399.323C1318.72 399.323 1308.44 398.281 1308.44 409.48C1308.44 409.48 1299.07 408.569 1298.28 418.335C1297.49 408.438 1288.13 409.48 1288.13 409.48L1288 409.35C1288 401.016 1282.2 399.453 1279.3 399.193C1288.79 398.281 1287.87 389.296 1287.87 389.296L1288 389.166C1299.21 389.166 1298.15 379.009 1298.15 379.009L1298.55 378.748C1298.55 378.748 1297.49 388.775 1308.7 388.775L1308.83 388.906C1308.83 388.906 1307.78 398.932 1319.11 398.932Z" fill="#C1F330"/>
<path d="M239.2 1702.9C214.7 1701.8 194.9 1682.5 193.1 1658.2C193.7 1660.6 196.4 1662.8 200.6 1664.7C202.2 1680.8 207.7 1692.7 214.1 1692.7C219.5 1692.7 224.2 1684.4 226.5 1672.3C227.1 1672.23 227.7 1672.13 228.3 1672C229.4 1682.7 231.7 1691.6 234.5 1697.2C235.9 1700 237.5 1702 239.2 1702.9Z" stroke="#C1F330" stroke-width="3" stroke-linecap="round" stroke-linejoin="round"/>
<path d="M289.9 1654.5C289.9 1680.6 269.4 1701.8 243.6 1702.9C245.3 1702 246.9 1700 248.4 1697.2C251.2 1691.6 253.4 1682.7 254.5 1672.1C255.033 1672.17 255.533 1672.23 256 1672.3C258.4 1684.4 263.1 1692.7 268.4 1692.7H268.5C271 1692.6 273.2 1690.9 275.2 1687.9C275.267 1687.83 275.3 1687.8 275.3 1687.8C275.567 1687.47 275.8 1687.1 276 1686.7C276 1686.7 276 1686.67 276 1686.6C278.9 1681.6 281 1673.9 281.9 1664.8C286.9 1662.6 289.9 1659.9 289.9 1657.1C289.9 1654.4 287.1 1651.8 282.3 1649.6C282 1644 281.3 1638.9 280.2 1634.3C281.7 1633 282.6 1631.5 282.6 1630C282.6 1629.4 282.467 1628.83 282.2 1628.3C287.1 1635.8 289.9 1644.8 289.9 1654.5Z" stroke="#C1F330" stroke-width="3" stroke-linecap="round" stroke-linejoin="round"/>
<path d="M289.9 1657.1C289.9 1659.9 286.9 1662.6 281.9 1664.8C281 1673.9 278.9 1681.6 276 1686.6C276 1686.67 276 1686.7 276 1686.7C275.8 1687.1 275.567 1687.47 275.3 1687.8C275.3 1687.8 275.267 1687.83 275.2 1687.9C273.2 1690.9 271 1692.6 268.5 1692.7H268.4C263.1 1692.7 258.4 1684.4 256 1672.3C255.533 1672.23 255.033 1672.17 254.5 1672.1C253.4 1682.7 251.2 1691.6 248.4 1697.2C246.9 1700 245.3 1702 243.6 1702.9C242.933 1702.97 242.233 1703 241.5 1703C240.7 1703 239.933 1702.97 239.2 1702.9C237.5 1702 235.9 1700 234.5 1697.2C231.7 1691.6 229.4 1682.7 228.3 1672C227.7 1672.13 227.1 1672.23 226.5 1672.3C224.2 1684.4 219.5 1692.7 214.1 1692.7C207.7 1692.7 202.2 1680.8 200.6 1664.7C196.4 1662.8 193.7 1660.6 193.1 1658.2C193.033 1657.67 193 1657.13 193 1656.6V1656.5C193 1655.83 193 1655.17 193 1654.5C193 1645.2 195.6 1636.4 200.2 1629C201 1627.73 201.867 1626.5 202.8 1625.3C203.733 1624.43 204.967 1623.63 206.5 1622.9C209.6 1621.3 213.8 1620 218.8 1618.9C223 1618.1 227.7 1617.4 232.7 1617.1C235.1 1610.6 238.1 1606.7 241.4 1606.7C244.7 1606.7 247.7 1610.6 250.1 1617.1C255.1 1617.4 259.7 1618.1 263.8 1618.9C268.7 1619.9 272.9 1621.3 276 1622.8C278 1623.8 279.5 1624.9 280.7 1626C281.233 1626.73 281.733 1627.5 282.2 1628.3C282.467 1628.83 282.6 1629.4 282.6 1630C282.6 1631.5 281.7 1633 280.2 1634.3C281.3 1638.9 282 1644 282.3 1649.6C287.1 1651.8 289.9 1654.4 289.9 1657.1Z" stroke="#C1F330" stroke-width="3" stroke-linecap="round" stroke-linejoin="round"/>
<path d="M289.9 1657.1C289.9 1659.9 286.9 1662.6 281.9 1664.8C275.8 1667.5 266.6 1669.5 255.7 1670.5C255.367 1670.5 255.033 1670.53 254.7 1670.6C250.5 1670.9 246 1671.1 241.4 1671.1H241.3C236.8 1671.1 232.3 1670.9 228.1 1670.6C227.7 1670.53 227.3 1670.5 226.9 1670.5C215.9 1669.5 206.7 1667.4 200.6 1664.7C196.4 1662.8 193.7 1660.6 193.1 1658.2C193.033 1657.8 193 1657.43 193 1657.1C193 1656.9 193 1656.73 193 1656.6V1656.5C193.4 1654 196 1651.7 200.2 1649.7C206.4 1646.9 216.1 1644.7 227.5 1643.7C227.633 1643.7 227.733 1643.7 227.8 1643.7C232.1 1643.3 236.6 1643.1 241.3 1643.1H241.4C246.1 1643.1 250.7 1643.3 255 1643.7C255 1643.7 255.033 1643.7 255.1 1643.7C266.4 1644.6 276.1 1646.8 282.3 1649.6C287.1 1651.8 289.9 1654.4 289.9 1657.1Z" stroke="#C1F330" stroke-width="3" stroke-linecap="round" stroke-linejoin="round"/>
<path d="M255.4 1655.1C255.4 1658.83 255.3 1662.43 255.1 1665.9C254.967 1667.5 254.833 1669.07 254.7 1670.6L254.5 1672.1C253.4 1682.7 251.2 1691.6 248.4 1697.2C246.9 1700 245.3 1702 243.6 1702.9C242.933 1703.3 242.2 1703.53 241.4 1703.6C240.667 1703.53 239.933 1703.3 239.2 1702.9C237.5 1702 235.9 1700 234.5 1697.2C231.7 1691.6 229.4 1682.7 228.3 1672C228.233 1671.53 228.167 1671.07 228.1 1670.6C227.9 1668.53 227.767 1666.43 227.7 1664.3C227.5 1661.3 227.4 1658.23 227.4 1655.1C227.4 1651.77 227.5 1648.53 227.7 1645.4C227.7 1644.8 227.733 1644.23 227.8 1643.7C227.867 1643.23 227.9 1642.8 227.9 1642.4C228.7 1632.2 230.4 1623.4 232.7 1617.1C235.1 1610.6 238.1 1606.7 241.4 1606.7C244.7 1606.7 247.7 1610.6 250.1 1617.1C252.4 1623.4 254.1 1632.2 254.9 1642.4C254.967 1642.8 255 1643.23 255 1643.7C255 1643.77 255 1643.83 255 1643.9C255.267 1647.5 255.4 1651.23 255.4 1655.1Z" stroke="#C1F330" stroke-width="3" stroke-linecap="round" stroke-linejoin="round"/>
<path d="M280.7 1626C279.5 1624.9 278 1623.8 276 1622.8C272.9 1621.3 268.7 1619.9 263.8 1618.9C259.7 1618.1 255.1 1617.4 250.1 1617.1C247.7 1610.6 244.7 1606.7 241.4 1606.7C238.1 1606.7 235.1 1610.6 232.7 1617.1C227.7 1617.4 223 1618.1 218.8 1618.9C213.8 1620 209.6 1621.3 206.5 1622.9C204.967 1623.63 203.733 1624.43 202.8 1625.3C211.6 1613.6 225.7 1606 241.5 1606C257.6 1606 271.8 1613.9 280.7 1626Z" stroke="#C1F330" stroke-width="3" stroke-linecap="round" stroke-linejoin="round"/>
<path d="M228.1 1654.7C228.1 1658 228 1661.2 227.7 1664.3C227.433 1666.43 227.167 1668.5 226.9 1670.5C226.767 1671.1 226.633 1671.7 226.5 1672.3C224.2 1684.4 219.5 1692.7 214.1 1692.7C207.7 1692.7 202.2 1680.8 200.6 1664.7C200.267 1661.5 200.1 1658.17 200.1 1654.7C200.1 1653.03 200.133 1651.37 200.2 1649.7C200.5 1644.1 201.2 1638.8 202.3 1634.2C203.4 1629.7 204.8 1625.9 206.5 1622.9C209.6 1621.3 213.8 1620 218.8 1618.9C222.8 1622.8 226 1631.4 227.3 1642.3C227.367 1642.77 227.433 1643.23 227.5 1643.7C227.567 1644.3 227.633 1644.87 227.7 1645.4C227.967 1648.4 228.1 1651.5 228.1 1654.7Z" stroke="#C1F330" stroke-width="3" stroke-linecap="round" stroke-linejoin="round"/>
<path d="M282.4 1654.7C282.4 1658.2 282.3 1661.6 281.9 1664.8C281 1673.9 278.9 1681.6 276 1686.6C276 1686.67 276 1686.7 276 1686.7C275.733 1687.1 275.5 1687.47 275.3 1687.8C275.3 1687.8 275.267 1687.83 275.2 1687.9C273.2 1690.9 271 1692.6 268.5 1692.7H268.4C263.1 1692.7 258.4 1684.4 256 1672.3C255.867 1671.7 255.767 1671.1 255.7 1670.5C255.433 1669.03 255.233 1667.5 255.1 1665.9C254.7 1662.4 254.4 1658.6 254.4 1654.7C254.4 1650.9 254.6 1647.3 255 1643.9C255 1643.83 255.033 1643.77 255.1 1643.7C255.1 1643.23 255.133 1642.77 255.2 1642.3C256.6 1631.4 259.8 1622.7 263.8 1618.9C268.7 1619.9 272.9 1621.3 276 1622.8C277.7 1625.8 279.2 1629.7 280.2 1634.3C281.3 1638.9 282 1644 282.3 1649.6C282.367 1651.27 282.4 1652.97 282.4 1654.7Z" stroke="#C1F330" stroke-width="3" stroke-linecap="round" stroke-linejoin="round"/>
<path d="M282.6 1630C282.6 1631.5 281.7 1633 280.2 1634.3C276.1 1638.1 266.9 1641 255.2 1642.3C255.133 1642.37 255.033 1642.4 254.9 1642.4C250.7 1642.9 246.1 1643.1 241.4 1643.1H241.3C236.6 1643.1 232.1 1642.9 227.9 1642.4C227.7 1642.4 227.5 1642.37 227.3 1642.3C215.6 1641 206.4 1638 202.3 1634.2C200.9 1632.9 200.1 1631.4 200.1 1630C200.1 1629.67 200.133 1629.33 200.2 1629C200.5 1627.7 201.4 1626.5 202.8 1625.3C203.733 1624.43 204.967 1623.63 206.5 1622.9C209.6 1621.3 213.8 1620 218.8 1618.9C223 1618.1 227.7 1617.4 232.7 1617.1C235.5 1616.9 238.367 1616.8 241.3 1616.8C244.367 1616.8 247.3 1616.9 250.1 1617.1C255.1 1617.4 259.7 1618.1 263.8 1618.9C268.7 1619.9 272.9 1621.3 276 1622.8C278 1623.8 279.5 1624.9 280.7 1626C281.433 1626.73 281.933 1627.5 282.2 1628.3C282.467 1628.83 282.6 1629.4 282.6 1630Z" stroke="#C1F330" stroke-width="3" stroke-linecap="round" stroke-linejoin="round"/>
<path d="M226.5 1672.3C224.2 1684.4 219.5 1692.7 214.1 1692.7C209.1 1690.4 206.1 1687.5 206.1 1684.3C206.1 1679 214.4 1674.4 226.5 1672.3Z" stroke="#C1F330" stroke-width="3" stroke-linecap="round" stroke-linejoin="round"/>
<path d="M241.4 1671.1C246.1 1671.1 250.5 1671.5 254.5 1672.1C253.4 1682.7 251.2 1691.6 248.4 1697.2C246.067 1697.33 243.7 1697.4 241.3 1697.4C238.967 1697.4 236.7 1697.33 234.5 1697.2C231.7 1691.6 229.4 1682.7 228.3 1672C232.3 1671.4 236.7 1671.1 241.3 1671.1H241.4Z" stroke="#C1F330" stroke-width="3" stroke-linecap="round" stroke-linejoin="round"/>
<path d="M276.6 1684.3C276.6 1685.1 276.4 1685.87 276 1686.6C276 1686.67 276 1686.7 276 1686.7C275.8 1687.1 275.567 1687.47 275.3 1687.8C275.3 1687.8 275.267 1687.83 275.2 1687.9C273.9 1689.7 271.6 1691.3 268.5 1692.7H268.4C263.1 1692.7 258.4 1684.4 256 1672.3C268.2 1674.4 276.6 1679 276.6 1684.3Z" stroke="#C1F330" stroke-width="3" stroke-linecap="round" stroke-linejoin="round"/>
<path d="M60.4751 221.936L57.251 219.673L65.6766 217.623L67.7831 226.122L65.0748 224.286L58.0678 236.586H65.1178V241.968H57.9388C57.9388 241.968 53.2531 241.669 53.1242 237.654C53.0382 233.639 52.6943 234.835 53.726 233.255C54.7147 231.674 60.4751 221.936 60.4751 221.936Z" fill="#C1F330"/>
<path d="M84.7202 220.185L87.8583 218.135L85.7089 226.891L77.2833 224.157L80.2924 222.833L73.4143 210.49L69.7174 216.47L65.1177 213.608L68.8576 207.543C68.8576 207.543 71.6518 203.187 76.0796 205.877L84.7202 220.185Z" fill="#C1F330"/>
<path d="M73.7585 241.583L73.9734 245L67.3103 239.362L73.5865 233.212L73.4146 236.458L87.6006 236.074L83.9896 230.051L88.5893 227.275L92.3293 233.383C92.3293 233.383 94.4787 237.483 91.0826 239.704C87.6866 241.882 88.8903 241.498 86.9988 241.455C85.1503 241.412 73.7585 241.583 73.7585 241.583Z" fill="#C1F330"/>
<path d="M1008.49 1028.89C1018.3 1039.64 998.843 1073.26 965.035 1104C931.274 1134.83 895.961 1151.07 886.146 1140.32C876.378 1129.67 895.927 1096 929.688 1065.17C963.497 1034.43 998.809 1018.19 1008.49 1028.89Z" stroke="#C1F330" stroke-width="3" stroke-miterlimit="10"/>
<path d="M866.982 1104.42C870.445 1118.55 909.299 1121.05 953.655 1110.07C998.057 1099.18 1031.2 1078.89 1027.65 1064.8C1024.24 1050.75 985.471 1048.2 941.069 1059.09C896.713 1070.07 863.566 1090.37 866.982 1104.42Z" stroke="#C1F330" stroke-width="3" stroke-miterlimit="10"/>
<path d="M1285.11 1578.81C1282.35 1577.24 1278.77 1578.64 1277.83 1581.6C1276.48 1585.97 1270.02 1586.19 1268.44 1581.88C1267.32 1578.97 1263.68 1577.8 1260.98 1579.53C1256.99 1582.11 1251.88 1578.25 1253.58 1573.94C1254.7 1571.08 1252.64 1567.95 1249.42 1567.61C1244.66 1567.11 1243.31 1561.07 1247.54 1558.77C1250.35 1557.26 1250.88 1553.62 1248.65 1551.39C1245.31 1548.08 1248.36 1542.66 1253.11 1543.49C1256.29 1544.05 1259.16 1541.59 1258.93 1538.51C1258.63 1533.93 1264.62 1531.63 1267.73 1535.16C1269.79 1537.56 1273.66 1537.45 1275.54 1534.93C1278.36 1531.24 1284.53 1533.2 1284.53 1537.79C1284.47 1540.86 1287.52 1543.1 1290.63 1542.38C1295.33 1541.31 1298.74 1546.52 1295.62 1550.04C1293.51 1552.39 1294.33 1555.97 1297.21 1557.37C1301.55 1559.39 1300.61 1565.49 1295.86 1566.27C1292.69 1566.77 1290.87 1570.02 1292.16 1572.82C1294.1 1577.02 1289.28 1581.16 1285.11 1578.81Z" stroke="#C1F330" stroke-width="3" stroke-miterlimit="10"/>
<path d="M1285.11 1578.81C1282.35 1577.24 1278.77 1578.64 1277.83 1581.6C1276.48 1585.97 1270.02 1586.19 1268.44 1581.88C1267.32 1578.97 1263.68 1577.8 1260.98 1579.53C1256.99 1582.11 1251.88 1578.25 1253.58 1573.94C1254.7 1571.08 1252.64 1567.95 1249.42 1567.61C1244.66 1567.11 1243.31 1561.07 1247.54 1558.77C1250.35 1557.26 1250.88 1553.62 1248.65 1551.39C1245.31 1548.08 1248.36 1542.66 1253.11 1543.49C1256.29 1544.05 1259.16 1541.59 1258.93 1538.51C1258.63 1533.93 1264.62 1531.63 1267.73 1535.16C1269.79 1537.56 1273.66 1537.45 1275.54 1534.93C1278.36 1531.24 1284.53 1533.2 1284.53 1537.79C1284.47 1540.86 1287.52 1543.1 1290.63 1542.38C1295.33 1541.31 1298.74 1546.52 1295.62 1550.04C1293.51 1552.39 1294.33 1555.97 1297.21 1557.37C1301.55 1559.39 1300.61 1565.49 1295.86 1566.27C1292.69 1566.77 1290.87 1570.02 1292.16 1572.82C1294.1 1577.02 1289.28 1581.16 1285.11 1578.81Z" stroke="#C1F330" stroke-width="3" stroke-miterlimit="10"/>
<path d="M1279.59 1570.13C1278.01 1569.29 1276.01 1570.02 1275.48 1571.7C1274.78 1574.16 1271.14 1574.27 1270.2 1571.87C1269.61 1570.24 1267.56 1569.57 1266.03 1570.52C1263.74 1571.98 1260.92 1569.85 1261.86 1567.39C1262.51 1565.77 1261.33 1564.03 1259.51 1563.86C1256.81 1563.58 1256.11 1560.17 1258.46 1558.88C1260.04 1558.04 1260.34 1555.97 1259.1 1554.74C1257.22 1552.9 1258.93 1549.82 1261.57 1550.27C1263.39 1550.6 1264.97 1549.2 1264.86 1547.47C1264.68 1544.89 1268.09 1543.61 1269.79 1545.62C1270.96 1546.96 1273.14 1546.85 1274.19 1545.45C1275.84 1543.38 1279.3 1544.5 1279.24 1547.08C1279.24 1548.81 1280.94 1550.1 1282.71 1549.65C1285.35 1549.03 1287.29 1552 1285.52 1553.96C1284.35 1555.3 1284.76 1557.32 1286.41 1558.04C1288.81 1559.22 1288.34 1562.63 1285.64 1563.08C1283.82 1563.36 1282.82 1565.21 1283.59 1566.77C1284.64 1569.13 1281.94 1571.48 1279.59 1570.13Z" stroke="#C1F330" stroke-width="3" stroke-miterlimit="10"/>
</svg>
