  <svg width="600" height="300" viewBox="0 0 30 30" fill="none" xmlns="http://www.w3.org/2000/svg">

                
                <ellipse rx="4" ry="1.1" cx="25" cy="27" fill="lightgray"> </ellipse>
                <circle cx="25" cy="20" r="7" fill="#ffd072"></circle>
                <circle cx="22" cy="19" r="2.7" fill="white"></circle>
                <circle cx="25" cy="19" r="2.7" fill="white"></circle>
                <circle cx="21.5" cy="19" r="0.7" fill="black"></circle>
                <circle cx="24.5" cy="19" r="0.7" fill="black"></circle>
                <ellipse rx="0.6" ry="1.1" cx="23.6" cy="23.2" fill="red"> </ellipse>

                <ellipse rx="4" ry="1.1" cx="2" cy="27" fill="lightgray"> </ellipse>
    <g transform="rotate(15,2,20)">
                    <ellipse cx="-3" cy="22" rx="6" ry="2.5" fill="orange"></ellipse>
                </g>
                <circle cx="2" cy="20" r="7" fill="orange"></circle>
                <circle cx="5" cy="19" r="2.7" fill="white"></circle>
                <circle cx="2" cy="19" r="2.7" fill="white"></circle>
                <circle cx="6" cy="19" r="0.7" fill="black"></circle>
                <circle cx="3" cy="19" r="0.7" fill="black"></circle>
                <ellipse rx="1.1" ry="0.6" cx="3" cy="23.2" fill="red"> </ellipse>
                <circle cx="4" cy="21.5" r="0.9" fill="black"></circle>
                <polygon points="-3,15 -2,12 1,13" fill="orange" stroke="orange" stroke-width="0.1" />
                <polygon points="7,15 6,12 3.5,13.5" fill="orange" stroke="orange" stroke-width="0.1" />
                <polygon points="-2.5,14.6 -1.8,12.5 0.5,13.2" fill="black" stroke="black" stroke-width="0.1" />
                <polygon points="6.6,14.5 5.8,12.5 4,13.5" fill="black" stroke="black" stroke-width="0.1" />
                <polygon points="-7.4,21 -8.4,19 -6.2,18.3" fill="white" stroke="white" stroke-width="0.1" />


            </svg>