<svg version="1.2" xmlns="http://www.w3.org/2000/svg" viewBox="0 0 1920 1080" width="1920" height="1080">
	<title>New Project</title>
	<style>
		.s0 { fill: #000000 } 
	</style>
	<rect width="1920" height="1080" id="Color Fill 1" style="fill: #c93737"/>
	<path id="&lt;Compound Path&gt;" fill-rule="evenodd" class="s0" d="m2254.5 1364.5c-53.6-93.4-250.8-209.8-303.6-217.7 125.7 275.9 198.1 374.3 212.1 386.5-5.1 20-47.8 44.4-71.5 42.4-126.1-243.9-264.6-351.3-419.1-456.4-161.9 114.2-204.4 134-295.8 249 51.6-142.3 194.2-272.5 194.2-272.5-77.9 18.1-126.2 39.9-129.9 44-12.3-3.3-25.9-51.7-21.1-61.2 7.9 1.2 42-17.6 128.2-38.1-44.8-37.7-203.3-93.4-300-108 9-34.5 23.4-51.2 41.7-73 138.2 29 396.4-30.6 431.4-41-26.8-62.6-171.1-365.2-180.4-370.1 0-18.6 47.6-64.7 66.2-68.4-1.4 19.9 90.4 226.1 174.1 411.8 10-13.4 64-113.6 51.4-128.1-9.3-10.6 42.6-69.3 60.5-60 14.1 24.7 56.7 135.8 72.4 164.8 25.4-4.3 214.4-36.2 236.4-30.3 9 3.8 22.1 14.8 22.3 29-27.5 4.2-153.4 70.3-204.7 103.5 164.4 286.3 306.5 439.1 315.6 445.4 3.8 12.6-62.8 54.5-80.4 48.4zm-267.5-548.3l12.1 23.4 56.4-34.1zm-155.6-22.8l46.7-9.3-19.2-42.9zm-22 59.2l40.6 82.1 76.1-50.2-27.5-51zm-166.4 244.7l-21.2-1.5-40.4 44zm-4.2-89.5c10-9.6 76.7-100.7 96.5-139.1-95.9 27.8-268 55.6-268 55.6 75 21.6 154 70.6 171.5 83.5zm96.7 13.1l61.3-46.5-34-69.3-82.8 115.6zm51.7 6l37.9 3.5-12.2-23.9zm118.1 178l-39.1-76.8-74.6-18.9zm0.1-160.1c69.6 21.3 100.3 29.4 165.1 64.3-56.2-78.8-83.6-124.3-124.9-191.8-18.8 12.8-77.5 52.5-77.5 52.5l37.3 75.1z"/>
	<path id="&lt;Compound Path&gt; copy" fill-rule="evenodd" class="s0" d="m721.9-570.4c-131.4 62.4-309.1 315.8-325.3 386.1 385-140.3 525.3-227.5 543.2-245.1 26.4 9 54.8 69.2 49.6 100.8-342 144.3-501.2 319.6-659.1 516.8 136.8 230.1 159.1 289.4 304.4 424.7-186.4-84.5-346.8-290.3-346.8-290.3 16.2 106.8 40.5 174.2 45.6 179.6-5.7 16.2-72.3 29.4-84.7 22 2.5-10.6-19.2-58.5-37.8-176.8-55.4 56.4-147.3 264.2-177.1 392.9-45.5-15.7-66.5-36.9-93.9-63.8 53.6-183.2 0.5-537.3-9.9-585.6-87.2 29.4-510.1 192.1-517.7 204.1-25-2-82.2-71-85.2-96.4 26.7 4 314.2-98.1 573.2-191.3-16.9-14.9-146.3-98.2-167.1-82.8-15.4 11.4-88.9-64.6-74.6-87.7 34.8-16.4 189.1-62.2 229.7-80.2-3.1-34.8-26.1-292.8-15.9-321.8 6.1-11.7 22.3-28.2 41.4-27 2.7 37.4 78.5 214.1 117.9 286.7 403-191.4 624-366.7 633.4-378.3 17.4-3.8 66.9 90.3 56.7 113.4zm-766.9 302.7l32.7-13.8-39.9-79.6zm-47.1 207.2l-7.6-63.9-59.9 21.4zm77.5 35.9l114.9-46.1-59.7-107.8-71.5 31.7zm312.1 250l-4.2 28.3 55 59.2zm-121.1-3.9c-11.7-14.4-127.5-113.9-177.1-144.6 27.2 132.1 46.7 366.9 46.7 366.9 36.9-98.8 111.3-200 130.4-222.2zm27.9-128.9l-56.2-87.6-96.9 38.6 147 123.7zm13.5-69.1l8.7-50.6-33.4 13.8zm252.2-140.3l-107.6 44.6-33.3 98.5zm-215.7-16.9c36.1-91.5 50.2-132.1 104-215.7-112 67.4-176.3 99.5-271.6 148 15.4 26.8 62.7 110 62.7 110l105-42.3z"/>
</svg>